<svg xmlns="http://www.w3.org/2000/svg" xmlns:xlink="http://www.w3.org/1999/xlink" width="8000" zoomAndPan="magnify" viewBox="0 0 6000 1499.999933" height="2000" preserveAspectRatio="xMidYMid meet" version="1.0"><defs><g/><clipPath id="12f085b6f5"><path d="M 0 5.421875 L 1494.574219 5.421875 L 1494.574219 1152 L 0 1152 Z M 0 5.421875 " clip-rule="nonzero"/></clipPath></defs><g clip-path="url(#12f085b6f5)"><path fill="currentColor" d="M 1095.972656 952.097656 L 331.0625 952.097656 C 328.039062 952.109375 325.015625 952.054688 321.996094 951.9375 C 318.976562 951.820312 315.960938 951.640625 312.945312 951.394531 C 309.933594 951.148438 306.925781 950.84375 303.925781 950.472656 C 300.925781 950.097656 297.9375 949.664062 294.957031 949.167969 C 291.972656 948.667969 289.003906 948.109375 286.046875 947.484375 C 283.089844 946.863281 280.144531 946.175781 277.21875 945.429688 C 274.289062 944.683594 271.375 943.875 268.480469 943.003906 C 265.585938 942.132812 262.710938 941.203125 259.855469 940.210938 C 257 939.21875 254.167969 938.167969 251.355469 937.054688 C 248.546875 935.945312 245.761719 934.773438 243 933.542969 C 240.238281 932.316406 237.503906 931.027344 234.796875 929.683594 C 232.089844 928.339844 229.410156 926.9375 226.761719 925.480469 C 224.113281 924.023438 221.5 922.511719 218.914062 920.941406 C 216.332031 919.375 213.78125 917.753906 211.265625 916.078125 C 208.75 914.402344 206.269531 912.671875 203.828125 910.890625 C 201.382812 909.113281 198.980469 907.28125 196.617188 905.398438 C 194.25 903.515625 191.925781 901.585938 189.640625 899.605469 C 187.359375 897.625 185.117188 895.597656 182.917969 893.523438 C 180.71875 891.449219 178.566406 889.328125 176.457031 887.164062 C 174.347656 884.996094 172.289062 882.789062 170.273438 880.535156 C 168.257812 878.28125 166.289062 875.988281 164.371094 873.652344 C 162.453125 871.316406 160.585938 868.941406 158.765625 866.527344 C 156.949219 864.109375 155.183594 861.660156 153.46875 859.167969 C 151.753906 856.679688 150.089844 854.15625 148.484375 851.597656 C 146.875 849.039062 145.320312 846.445312 143.824219 843.820312 C 142.324219 841.195312 140.882812 838.539062 139.496094 835.851562 C 138.109375 833.167969 136.78125 830.453125 135.507812 827.710938 C 134.234375 824.96875 133.023438 822.203125 131.867188 819.40625 C 130.710938 816.613281 129.617188 813.796875 128.582031 810.957031 C 127.546875 808.121094 126.570312 805.257812 125.652344 802.378906 C 124.738281 799.496094 123.886719 796.597656 123.09375 793.683594 C 122.300781 790.765625 121.566406 787.832031 120.898438 784.886719 L 1.070312 265.757812 C 0.859375 264.847656 0.675781 263.933594 0.515625 263.011719 C 0.359375 262.09375 0.226562 261.167969 0.117188 260.242188 C 0.0117188 259.316406 -0.0703125 258.386719 -0.121094 257.453125 C -0.175781 256.519531 -0.207031 255.589844 -0.207031 254.65625 C -0.210938 253.722656 -0.183594 252.789062 -0.136719 251.855469 C -0.0859375 250.921875 -0.0078125 249.992188 0.09375 249.066406 C 0.199219 248.136719 0.328125 247.214844 0.480469 246.292969 C 0.636719 245.371094 0.816406 244.457031 1.023438 243.546875 C 1.230469 242.632812 1.460938 241.730469 1.71875 240.832031 C 1.972656 239.9375 2.257812 239.046875 2.5625 238.164062 C 2.871094 237.28125 3.203125 236.410156 3.558594 235.546875 C 3.914062 234.683594 4.292969 233.832031 4.699219 232.988281 C 5.101562 232.148438 5.527344 231.320312 5.980469 230.5 C 6.429688 229.683594 6.902344 228.878906 7.398438 228.085938 C 7.894531 227.296875 8.414062 226.519531 8.953125 225.757812 C 9.492188 224.996094 10.050781 224.25 10.632812 223.519531 C 11.214844 222.789062 11.816406 222.074219 12.4375 221.378906 C 13.058594 220.683594 13.699219 220.003906 14.359375 219.34375 C 15.019531 218.683594 15.695312 218.039062 16.390625 217.417969 C 17.089844 216.796875 17.800781 216.191406 18.53125 215.609375 C 19.261719 215.027344 20.003906 214.464844 20.765625 213.925781 C 21.527344 213.382812 22.304688 212.867188 23.09375 212.367188 C 23.882812 211.871094 24.6875 211.398438 25.503906 210.945312 C 26.320312 210.492188 27.152344 210.066406 27.992188 209.660156 C 28.832031 209.253906 29.683594 208.875 30.546875 208.515625 C 31.410156 208.160156 32.28125 207.828125 33.164062 207.519531 C 34.042969 207.210938 34.933594 206.925781 35.832031 206.667969 C 36.726562 206.410156 37.632812 206.175781 38.542969 205.96875 C 39.453125 205.761719 40.367188 205.578125 41.289062 205.421875 C 42.207031 205.269531 43.132812 205.136719 44.0625 205.035156 C 44.988281 204.929688 45.917969 204.851562 46.851562 204.800781 C 47.78125 204.746094 48.714844 204.722656 49.648438 204.722656 L 1208.925781 204.722656 L 1246.746094 43.835938 C 1247.0625 42.484375 1247.4375 41.144531 1247.871094 39.820312 C 1248.300781 38.496094 1248.785156 37.191406 1249.328125 35.910156 C 1249.867188 34.625 1250.460938 33.367188 1251.105469 32.136719 C 1251.75 30.902344 1252.449219 29.699219 1253.195312 28.523438 C 1253.941406 27.347656 1254.734375 26.207031 1255.578125 25.097656 C 1256.421875 23.988281 1257.308594 22.917969 1258.238281 21.886719 C 1259.171875 20.851562 1260.144531 19.859375 1261.160156 18.90625 C 1262.175781 17.953125 1263.230469 17.042969 1264.320312 16.179688 C 1265.414062 15.316406 1266.539062 14.5 1267.699219 13.730469 C 1268.859375 12.960938 1270.046875 12.242188 1271.269531 11.570312 C 1272.488281 10.902344 1273.734375 10.285156 1275.007812 9.71875 C 1276.28125 9.152344 1277.574219 8.640625 1278.886719 8.183594 C 1280.203125 7.726562 1281.535156 7.324219 1282.882812 6.980469 C 1284.230469 6.636719 1285.59375 6.347656 1286.964844 6.117188 C 1288.335938 5.882812 1289.71875 5.710938 1291.105469 5.59375 C 1292.492188 5.480469 1293.882812 5.421875 1295.273438 5.421875 L 1444.75 5.421875 C 1446.382812 5.421875 1448.007812 5.503906 1449.632812 5.664062 C 1451.257812 5.824219 1452.867188 6.0625 1454.46875 6.378906 C 1456.070312 6.699219 1457.652344 7.09375 1459.210938 7.566406 C 1460.773438 8.042969 1462.308594 8.589844 1463.816406 9.214844 C 1465.324219 9.839844 1466.796875 10.535156 1468.238281 11.304688 C 1469.675781 12.074219 1471.074219 12.914062 1472.429688 13.820312 C 1473.789062 14.726562 1475.097656 15.695312 1476.359375 16.730469 C 1477.621094 17.765625 1478.828125 18.863281 1479.980469 20.015625 C 1481.132812 21.167969 1482.230469 22.378906 1483.265625 23.640625 C 1484.300781 24.898438 1485.269531 26.210938 1486.175781 27.566406 C 1487.082031 28.921875 1487.921875 30.320312 1488.691406 31.761719 C 1489.460938 33.199219 1490.15625 34.671875 1490.78125 36.179688 C 1491.40625 37.6875 1491.953125 39.222656 1492.429688 40.785156 C 1492.902344 42.347656 1493.296875 43.925781 1493.617188 45.527344 C 1493.933594 47.128906 1494.175781 48.738281 1494.335938 50.363281 C 1494.496094 51.988281 1494.574219 53.617188 1494.574219 55.246094 C 1494.574219 56.878906 1494.496094 58.507812 1494.335938 60.132812 C 1494.175781 61.753906 1493.933594 63.367188 1493.617188 64.96875 C 1493.296875 66.570312 1492.902344 68.148438 1492.429688 69.710938 C 1491.953125 71.273438 1491.40625 72.808594 1490.78125 74.316406 C 1490.15625 75.824219 1489.460938 77.296875 1488.691406 78.734375 C 1487.921875 80.175781 1487.082031 81.570312 1486.175781 82.929688 C 1485.269531 84.285156 1484.300781 85.59375 1483.265625 86.855469 C 1482.230469 88.117188 1481.132812 89.324219 1479.980469 90.480469 C 1478.828125 91.632812 1477.621094 92.726562 1476.359375 93.761719 C 1475.097656 94.796875 1473.789062 95.769531 1472.429688 96.675781 C 1471.074219 97.582031 1469.675781 98.421875 1468.238281 99.1875 C 1466.796875 99.957031 1465.324219 100.65625 1463.816406 101.28125 C 1462.308594 101.90625 1460.773438 102.453125 1459.210938 102.925781 C 1457.652344 103.402344 1456.070312 103.796875 1454.46875 104.113281 C 1452.867188 104.433594 1451.257812 104.671875 1449.632812 104.832031 C 1448.007812 104.992188 1446.382812 105.074219 1444.75 105.074219 L 1334.734375 105.074219 L 1155.765625 865.203125 C 1157.703125 866.058594 1159.621094 866.957031 1161.519531 867.894531 C 1163.421875 868.832031 1165.300781 869.8125 1167.160156 870.828125 C 1169.015625 871.847656 1170.851562 872.902344 1172.667969 874 C 1174.480469 875.09375 1176.269531 876.230469 1178.035156 877.402344 C 1179.800781 878.574219 1181.539062 879.78125 1183.253906 881.027344 C 1184.964844 882.273438 1186.652344 883.558594 1188.3125 884.875 C 1189.972656 886.191406 1191.601562 887.546875 1193.203125 888.933594 C 1194.804688 890.320312 1196.375 891.742188 1197.917969 893.195312 C 1199.460938 894.648438 1200.96875 896.132812 1202.445312 897.652344 C 1203.925781 899.171875 1205.371094 900.71875 1206.78125 902.300781 C 1208.195312 903.878906 1209.574219 905.488281 1210.917969 907.125 C 1212.261719 908.765625 1213.570312 910.429688 1214.84375 912.125 C 1216.113281 913.820312 1217.351562 915.539062 1218.550781 917.285156 C 1219.75 919.03125 1220.914062 920.804688 1222.039062 922.597656 C 1223.160156 924.394531 1224.246094 926.214844 1225.296875 928.054688 C 1226.34375 929.898438 1227.351562 931.761719 1228.316406 933.644531 C 1229.285156 935.53125 1230.210938 937.4375 1231.101562 939.359375 C 1231.988281 941.285156 1232.832031 943.226562 1233.636719 945.1875 C 1234.441406 947.148438 1235.203125 949.125 1235.921875 951.117188 C 1236.644531 953.109375 1237.320312 955.117188 1237.957031 957.136719 C 1238.589844 959.160156 1239.183594 961.195312 1239.730469 963.242188 C 1240.277344 965.289062 1240.785156 967.34375 1241.246094 969.414062 C 1241.707031 971.480469 1242.121094 973.558594 1242.496094 975.644531 C 1242.867188 977.730469 1243.195312 979.824219 1243.480469 981.921875 C 1243.761719 984.023438 1244 986.128906 1244.195312 988.238281 C 1244.390625 990.347656 1244.539062 992.460938 1244.640625 994.578125 C 1244.746094 996.691406 1244.804688 998.8125 1244.820312 1000.929688 C 1244.832031 1003.046875 1244.800781 1005.167969 1244.726562 1007.285156 C 1244.652344 1009.402344 1244.53125 1011.515625 1244.363281 1013.628906 C 1244.199219 1015.742188 1243.988281 1017.847656 1243.730469 1019.953125 C 1243.476562 1022.054688 1243.175781 1024.152344 1242.832031 1026.242188 C 1242.484375 1028.335938 1242.097656 1030.417969 1241.664062 1032.492188 C 1241.230469 1034.566406 1240.753906 1036.628906 1240.230469 1038.683594 C 1239.710938 1040.738281 1239.148438 1042.777344 1238.539062 1044.808594 C 1237.929688 1046.839844 1237.28125 1048.855469 1236.585938 1050.855469 C 1235.894531 1052.859375 1235.15625 1054.84375 1234.378906 1056.816406 C 1233.601562 1058.785156 1232.78125 1060.742188 1231.917969 1062.675781 C 1231.058594 1064.613281 1230.15625 1066.527344 1229.214844 1068.425781 C 1228.269531 1070.324219 1227.289062 1072.203125 1226.265625 1074.058594 C 1225.242188 1075.914062 1224.183594 1077.746094 1223.082031 1079.558594 C 1221.980469 1081.367188 1220.84375 1083.152344 1219.664062 1084.917969 C 1218.488281 1086.679688 1217.277344 1088.414062 1216.027344 1090.125 C 1214.777344 1091.835938 1213.488281 1093.519531 1212.167969 1095.175781 C 1210.84375 1096.832031 1209.488281 1098.457031 1208.097656 1100.058594 C 1206.707031 1101.65625 1205.28125 1103.222656 1203.824219 1104.761719 C 1202.367188 1106.300781 1200.878906 1107.804688 1199.355469 1109.28125 C 1197.832031 1110.753906 1196.28125 1112.195312 1194.699219 1113.605469 C 1193.113281 1115.011719 1191.503906 1116.386719 1189.859375 1117.726562 C 1188.21875 1119.066406 1186.550781 1120.371094 1184.851562 1121.636719 C 1183.15625 1122.90625 1181.433594 1124.140625 1179.683594 1125.335938 C 1177.933594 1126.53125 1176.160156 1127.6875 1174.359375 1128.808594 C 1172.5625 1129.929688 1170.742188 1131.011719 1168.894531 1132.050781 C 1167.050781 1133.09375 1165.183594 1134.097656 1163.296875 1135.0625 C 1161.410156 1136.023438 1159.503906 1136.945312 1157.578125 1137.828125 C 1155.652344 1138.710938 1153.707031 1139.550781 1151.742188 1140.351562 C 1149.78125 1141.152344 1147.804688 1141.910156 1145.808594 1142.625 C 1143.8125 1143.339844 1141.804688 1144.011719 1139.78125 1144.640625 C 1137.757812 1145.273438 1135.722656 1145.859375 1133.675781 1146.402344 C 1131.628906 1146.945312 1129.570312 1147.445312 1127.5 1147.898438 C 1125.429688 1148.355469 1123.351562 1148.765625 1121.265625 1149.136719 C 1119.179688 1149.503906 1117.085938 1149.824219 1114.984375 1150.101562 C 1112.882812 1150.382812 1110.777344 1150.617188 1108.667969 1150.804688 C 1106.558594 1150.992188 1104.445312 1151.136719 1102.328125 1151.234375 C 1100.210938 1151.335938 1098.09375 1151.386719 1095.972656 1151.398438 L 149.300781 1151.398438 C 147.667969 1151.398438 146.039062 1151.316406 144.414062 1151.15625 C 142.792969 1150.996094 141.179688 1150.757812 139.578125 1150.441406 C 137.980469 1150.121094 136.398438 1149.726562 134.835938 1149.253906 C 133.273438 1148.777344 131.738281 1148.230469 130.230469 1147.605469 C 128.726562 1146.980469 127.25 1146.285156 125.8125 1145.515625 C 124.371094 1144.746094 122.976562 1143.90625 121.617188 1143 C 120.261719 1142.09375 118.953125 1141.121094 117.691406 1140.085938 C 116.429688 1139.050781 115.222656 1137.957031 114.066406 1136.804688 C 112.914062 1135.648438 111.820312 1134.441406 110.785156 1133.179688 C 109.75 1131.917969 108.777344 1130.609375 107.871094 1129.253906 C 106.964844 1127.898438 106.128906 1126.5 105.359375 1125.058594 C 104.589844 1123.621094 103.890625 1122.148438 103.265625 1120.640625 C 102.644531 1119.132812 102.09375 1117.597656 101.621094 1116.035156 C 101.144531 1114.472656 100.75 1112.894531 100.433594 1111.292969 C 100.113281 1109.691406 99.875 1108.082031 99.714844 1106.457031 C 99.554688 1104.832031 99.472656 1103.203125 99.472656 1101.574219 C 99.472656 1099.941406 99.554688 1098.3125 99.714844 1096.6875 C 99.875 1095.066406 100.113281 1093.453125 100.433594 1091.851562 C 100.75 1090.25 101.144531 1088.671875 101.621094 1087.109375 C 102.09375 1085.546875 102.644531 1084.011719 103.265625 1082.503906 C 103.890625 1080.996094 104.589844 1079.523438 105.359375 1078.085938 C 106.128906 1076.644531 106.964844 1075.246094 107.871094 1073.890625 C 108.777344 1072.535156 109.75 1071.226562 110.785156 1069.964844 C 111.820312 1068.703125 112.914062 1067.496094 114.066406 1066.339844 C 115.222656 1065.1875 116.429688 1064.09375 117.691406 1063.058594 C 118.953125 1062.023438 120.261719 1061.050781 121.617188 1060.144531 C 122.976562 1059.238281 124.371094 1058.398438 125.8125 1057.628906 C 127.25 1056.863281 128.726562 1056.164062 130.230469 1055.539062 C 131.738281 1054.914062 133.273438 1054.367188 134.835938 1053.894531 C 136.398438 1053.417969 137.980469 1053.023438 139.578125 1052.703125 C 141.179688 1052.386719 142.792969 1052.148438 144.414062 1051.988281 C 146.039062 1051.828125 147.667969 1051.746094 149.300781 1051.746094 L 1095.972656 1051.746094 C 1097.605469 1051.746094 1099.234375 1051.667969 1100.859375 1051.507812 C 1102.480469 1051.347656 1104.09375 1051.109375 1105.695312 1050.789062 C 1107.296875 1050.472656 1108.875 1050.074219 1110.4375 1049.601562 C 1112 1049.128906 1113.535156 1048.578125 1115.042969 1047.953125 C 1116.550781 1047.332031 1118.023438 1046.632812 1119.460938 1045.863281 C 1120.902344 1045.09375 1122.296875 1044.257812 1123.65625 1043.351562 C 1125.011719 1042.445312 1126.320312 1041.472656 1127.582031 1040.4375 C 1128.84375 1039.402344 1130.050781 1038.308594 1131.207031 1037.152344 C 1132.359375 1036 1133.453125 1034.792969 1134.488281 1033.53125 C 1135.523438 1032.269531 1136.496094 1030.960938 1137.402344 1029.605469 C 1138.308594 1028.246094 1139.148438 1026.847656 1139.914062 1025.410156 C 1140.683594 1023.96875 1141.382812 1022.496094 1142.007812 1020.988281 C 1142.632812 1019.480469 1143.179688 1017.949219 1143.652344 1016.386719 C 1144.128906 1014.824219 1144.523438 1013.242188 1144.84375 1011.644531 C 1145.160156 1010.042969 1145.398438 1008.429688 1145.558594 1006.804688 C 1145.71875 1005.183594 1145.800781 1003.554688 1145.800781 1001.921875 C 1145.800781 1000.289062 1145.71875 998.664062 1145.558594 997.039062 C 1145.398438 995.414062 1145.160156 993.800781 1144.84375 992.203125 C 1144.523438 990.601562 1144.128906 989.019531 1143.652344 987.457031 C 1143.179688 985.898438 1142.632812 984.363281 1142.007812 982.855469 C 1141.382812 981.347656 1140.683594 979.875 1139.914062 978.433594 C 1139.148438 976.996094 1138.308594 975.597656 1137.402344 974.242188 C 1136.496094 972.882812 1135.523438 971.574219 1134.488281 970.3125 C 1133.453125 969.050781 1132.359375 967.84375 1131.207031 966.691406 C 1130.050781 965.535156 1128.84375 964.441406 1127.582031 963.40625 C 1126.320312 962.371094 1125.011719 961.402344 1123.65625 960.496094 C 1122.296875 959.589844 1120.902344 958.75 1119.460938 957.980469 C 1118.023438 957.210938 1116.550781 956.515625 1115.042969 955.890625 C 1113.535156 955.265625 1112 954.714844 1110.4375 954.242188 C 1108.875 953.769531 1107.296875 953.375 1105.695312 953.054688 C 1104.09375 952.738281 1102.480469 952.496094 1100.859375 952.335938 C 1099.234375 952.175781 1097.605469 952.097656 1095.972656 952.097656 Z M 112.28125 304.371094 L 218.007812 762.464844 C 218.726562 765.636719 219.574219 768.777344 220.558594 771.878906 C 221.542969 774.980469 222.65625 778.035156 223.894531 781.042969 C 225.136719 784.054688 226.503906 787.003906 227.996094 789.894531 C 229.484375 792.789062 231.097656 795.613281 232.828125 798.371094 C 234.554688 801.125 236.398438 803.804688 238.355469 806.40625 C 240.3125 809.007812 242.375 811.519531 244.542969 813.945312 C 246.714844 816.371094 248.980469 818.703125 251.347656 820.9375 C 253.714844 823.171875 256.167969 825.300781 258.714844 827.328125 C 261.261719 829.355469 263.890625 831.273438 266.597656 833.074219 C 269.304688 834.878906 272.085938 836.566406 274.9375 838.136719 C 277.789062 839.707031 280.699219 841.152344 283.671875 842.476562 C 286.648438 843.800781 289.671875 844.996094 292.746094 846.0625 C 295.820312 847.128906 298.933594 848.066406 302.085938 848.871094 C 305.242188 849.671875 308.421875 850.34375 311.632812 850.878906 C 314.84375 851.414062 318.070312 851.8125 321.3125 852.074219 C 324.558594 852.335938 327.804688 852.460938 331.0625 852.449219 L 1056.511719 852.449219 L 1185.660156 304.371094 Z M 112.28125 304.371094 " fill-opacity="1" fill-rule="nonzero"/></g><path fill="currentColor" d="M 996.324219 1201.222656 C 998.769531 1201.222656 1001.214844 1201.28125 1003.660156 1201.402344 C 1006.101562 1201.523438 1008.539062 1201.703125 1010.976562 1201.941406 C 1013.410156 1202.183594 1015.835938 1202.480469 1018.257812 1202.839844 C 1020.675781 1203.199219 1023.085938 1203.617188 1025.484375 1204.09375 C 1027.882812 1204.570312 1030.269531 1205.109375 1032.644531 1205.703125 C 1035.015625 1206.296875 1037.375 1206.949219 1039.714844 1207.660156 C 1042.054688 1208.367188 1044.378906 1209.136719 1046.679688 1209.960938 C 1048.984375 1210.785156 1051.265625 1211.664062 1053.527344 1212.601562 C 1055.785156 1213.535156 1058.023438 1214.527344 1060.234375 1215.574219 C 1062.445312 1216.621094 1064.628906 1217.71875 1066.785156 1218.871094 C 1068.945312 1220.023438 1071.070312 1221.230469 1073.167969 1222.488281 C 1075.269531 1223.746094 1077.335938 1225.054688 1079.367188 1226.414062 C 1081.402344 1227.773438 1083.402344 1229.179688 1085.367188 1230.636719 C 1087.332031 1232.09375 1089.257812 1233.601562 1091.148438 1235.152344 C 1093.042969 1236.703125 1094.894531 1238.300781 1096.707031 1239.945312 C 1098.519531 1241.585938 1100.289062 1243.273438 1102.019531 1245.003906 C 1103.75 1246.730469 1105.433594 1248.503906 1107.078125 1250.316406 C 1108.722656 1252.128906 1110.316406 1253.980469 1111.871094 1255.871094 C 1113.421875 1257.761719 1114.925781 1259.691406 1116.382812 1261.65625 C 1117.839844 1263.621094 1119.25 1265.621094 1120.609375 1267.652344 C 1121.96875 1269.6875 1123.277344 1271.753906 1124.535156 1273.851562 C 1125.789062 1275.949219 1126.996094 1278.078125 1128.148438 1280.234375 C 1129.300781 1282.394531 1130.402344 1284.578125 1131.449219 1286.789062 C 1132.492188 1289 1133.484375 1291.234375 1134.421875 1293.496094 C 1135.355469 1295.753906 1136.238281 1298.039062 1137.0625 1300.339844 C 1137.886719 1302.644531 1138.652344 1304.964844 1139.363281 1307.308594 C 1140.074219 1309.648438 1140.726562 1312.003906 1141.320312 1314.378906 C 1141.914062 1316.75 1142.449219 1319.136719 1142.925781 1321.535156 C 1143.40625 1323.933594 1143.824219 1326.34375 1144.179688 1328.765625 C 1144.539062 1331.183594 1144.839844 1333.613281 1145.078125 1336.046875 C 1145.320312 1338.480469 1145.5 1340.917969 1145.621094 1343.363281 C 1145.738281 1345.804688 1145.800781 1348.25 1145.800781 1350.699219 C 1145.800781 1353.144531 1145.738281 1355.589844 1145.621094 1358.03125 C 1145.5 1360.476562 1145.320312 1362.914062 1145.078125 1365.347656 C 1144.839844 1367.78125 1144.539062 1370.210938 1144.179688 1372.628906 C 1143.824219 1375.050781 1143.40625 1377.460938 1142.925781 1379.859375 C 1142.449219 1382.257812 1141.914062 1384.644531 1141.320312 1387.015625 C 1140.726562 1389.390625 1140.074219 1391.746094 1139.363281 1394.085938 C 1138.652344 1396.429688 1137.886719 1398.75 1137.0625 1401.054688 C 1136.238281 1403.355469 1135.355469 1405.640625 1134.421875 1407.898438 C 1133.484375 1410.160156 1132.492188 1412.394531 1131.449219 1414.605469 C 1130.402344 1416.816406 1129.300781 1419 1128.148438 1421.160156 C 1126.996094 1423.316406 1125.789062 1425.445312 1124.535156 1427.542969 C 1123.277344 1429.640625 1121.96875 1431.707031 1120.609375 1433.742188 C 1119.25 1435.773438 1117.839844 1437.773438 1116.382812 1439.738281 C 1114.925781 1441.703125 1113.421875 1443.632812 1111.871094 1445.523438 C 1110.316406 1447.414062 1108.722656 1449.265625 1107.078125 1451.078125 C 1105.433594 1452.890625 1103.75 1454.664062 1102.019531 1456.390625 C 1100.289062 1458.121094 1098.519531 1459.808594 1096.707031 1461.449219 C 1094.894531 1463.09375 1093.042969 1464.691406 1091.148438 1466.242188 C 1089.257812 1467.796875 1087.332031 1469.300781 1085.367188 1470.757812 C 1083.402344 1472.214844 1081.402344 1473.621094 1079.367188 1474.980469 C 1077.335938 1476.339844 1075.269531 1477.648438 1073.167969 1478.90625 C 1071.070312 1480.164062 1068.945312 1481.371094 1066.785156 1482.523438 C 1064.628906 1483.675781 1062.445312 1484.773438 1060.234375 1485.820312 C 1058.023438 1486.867188 1055.785156 1487.859375 1053.527344 1488.792969 C 1051.265625 1489.730469 1048.984375 1490.609375 1046.679688 1491.433594 C 1044.378906 1492.257812 1042.054688 1493.027344 1039.714844 1493.734375 C 1037.375 1494.445312 1035.015625 1495.097656 1032.644531 1495.691406 C 1030.269531 1496.285156 1027.882812 1496.824219 1025.484375 1497.300781 C 1023.085938 1497.777344 1020.675781 1498.195312 1018.257812 1498.554688 C 1015.835938 1498.914062 1013.410156 1499.214844 1010.976562 1499.453125 C 1008.539062 1499.691406 1006.101562 1499.871094 1003.660156 1499.992188 C 1001.214844 1500.113281 998.769531 1500.171875 996.324219 1500.171875 C 993.878906 1500.171875 991.433594 1500.113281 988.988281 1499.992188 C 986.546875 1499.871094 984.109375 1499.691406 981.671875 1499.453125 C 979.238281 1499.214844 976.8125 1498.914062 974.390625 1498.554688 C 971.972656 1498.195312 969.5625 1497.777344 967.164062 1497.300781 C 964.765625 1496.824219 962.378906 1496.285156 960.003906 1495.691406 C 957.632812 1495.097656 955.273438 1494.445312 952.933594 1493.734375 C 950.59375 1493.027344 948.269531 1492.257812 945.96875 1491.433594 C 943.664062 1490.609375 941.382812 1489.730469 939.121094 1488.792969 C 936.863281 1487.859375 934.628906 1486.867188 932.414062 1485.820312 C 930.203125 1484.773438 928.019531 1483.675781 925.863281 1482.523438 C 923.703125 1481.371094 921.578125 1480.164062 919.480469 1478.90625 C 917.378906 1477.648438 915.316406 1476.339844 913.28125 1474.980469 C 911.246094 1473.621094 909.246094 1472.214844 907.28125 1470.757812 C 905.316406 1469.300781 903.390625 1467.796875 901.5 1466.242188 C 899.609375 1464.691406 897.753906 1463.09375 895.941406 1461.449219 C 894.128906 1459.808594 892.359375 1458.121094 890.628906 1456.390625 C 888.898438 1454.664062 887.214844 1452.890625 885.570312 1451.078125 C 883.929688 1449.265625 882.332031 1447.414062 880.777344 1445.523438 C 879.226562 1443.632812 877.722656 1441.703125 876.265625 1439.738281 C 874.808594 1437.773438 873.398438 1435.773438 872.039062 1433.742188 C 870.679688 1431.707031 869.371094 1429.640625 868.117188 1427.542969 C 866.859375 1425.445312 865.652344 1423.316406 864.5 1421.160156 C 863.347656 1419 862.246094 1416.816406 861.199219 1414.605469 C 860.15625 1412.394531 859.164062 1410.160156 858.226562 1407.898438 C 857.292969 1405.640625 856.410156 1403.355469 855.585938 1401.054688 C 854.761719 1398.75 853.996094 1396.429688 853.285156 1394.085938 C 852.574219 1391.746094 851.921875 1389.390625 851.328125 1387.015625 C 850.734375 1384.644531 850.199219 1382.257812 849.722656 1379.859375 C 849.246094 1377.460938 848.824219 1375.050781 848.46875 1372.628906 C 848.109375 1370.210938 847.808594 1367.78125 847.570312 1365.347656 C 847.328125 1362.914062 847.148438 1360.476562 847.03125 1358.03125 C 846.910156 1355.589844 846.847656 1353.144531 846.847656 1350.699219 C 846.847656 1348.25 846.910156 1345.804688 847.03125 1343.363281 C 847.148438 1340.917969 847.328125 1338.480469 847.570312 1336.046875 C 847.808594 1333.613281 848.109375 1331.183594 848.46875 1328.765625 C 848.824219 1326.34375 849.246094 1323.933594 849.722656 1321.535156 C 850.199219 1319.136719 850.734375 1316.75 851.328125 1314.378906 C 851.921875 1312.003906 852.574219 1309.648438 853.285156 1307.308594 C 853.996094 1304.964844 854.761719 1302.644531 855.585938 1300.339844 C 856.410156 1298.039062 857.292969 1295.753906 858.226562 1293.496094 C 859.164062 1291.234375 860.15625 1289 861.199219 1286.789062 C 862.246094 1284.578125 863.347656 1282.394531 864.5 1280.234375 C 865.652344 1278.078125 866.859375 1275.949219 868.117188 1273.851562 C 869.371094 1271.753906 870.679688 1269.6875 872.039062 1267.652344 C 873.398438 1265.621094 874.808594 1263.621094 876.265625 1261.65625 C 877.722656 1259.691406 879.226562 1257.761719 880.777344 1255.871094 C 882.332031 1253.980469 883.929688 1252.128906 885.570312 1250.316406 C 887.214844 1248.503906 888.898438 1246.734375 890.628906 1245.003906 C 892.359375 1243.273438 894.128906 1241.585938 895.941406 1239.945312 C 897.753906 1238.300781 899.605469 1236.703125 901.5 1235.152344 C 903.390625 1233.601562 905.316406 1232.09375 907.28125 1230.636719 C 909.246094 1229.179688 911.246094 1227.773438 913.28125 1226.414062 C 915.3125 1225.054688 917.378906 1223.746094 919.480469 1222.488281 C 921.578125 1221.230469 923.703125 1220.023438 925.863281 1218.871094 C 928.019531 1217.71875 930.203125 1216.621094 932.414062 1215.574219 C 934.625 1214.527344 936.863281 1213.535156 939.121094 1212.601562 C 941.382812 1211.664062 943.664062 1210.785156 945.96875 1209.960938 C 948.269531 1209.136719 950.59375 1208.367188 952.933594 1207.660156 C 955.273438 1206.949219 957.632812 1206.296875 960.003906 1205.703125 C 962.378906 1205.109375 964.765625 1204.570312 967.164062 1204.09375 C 969.5625 1203.617188 971.972656 1203.199219 974.390625 1202.839844 C 976.8125 1202.480469 979.238281 1202.183594 981.671875 1201.941406 C 984.109375 1201.703125 986.546875 1201.523438 988.988281 1201.402344 C 991.433594 1201.28125 993.878906 1201.222656 996.324219 1201.222656 Z M 996.324219 1400.523438 C 997.957031 1400.523438 999.582031 1400.441406 1001.207031 1400.28125 C 1002.832031 1400.121094 1004.445312 1399.882812 1006.042969 1399.566406 C 1007.644531 1399.246094 1009.226562 1398.851562 1010.789062 1398.375 C 1012.347656 1397.902344 1013.882812 1397.355469 1015.390625 1396.730469 C 1016.898438 1396.105469 1018.371094 1395.410156 1019.8125 1394.640625 C 1021.25 1393.871094 1022.648438 1393.03125 1024.003906 1392.125 C 1025.363281 1391.21875 1026.671875 1390.246094 1027.933594 1389.210938 C 1029.195312 1388.175781 1030.402344 1387.082031 1031.554688 1385.929688 C 1032.710938 1384.773438 1033.804688 1383.566406 1034.839844 1382.304688 C 1035.875 1381.042969 1036.84375 1379.734375 1037.753906 1378.378906 C 1038.660156 1377.023438 1039.496094 1375.625 1040.265625 1374.183594 C 1041.035156 1372.746094 1041.730469 1371.273438 1042.355469 1369.765625 C 1042.980469 1368.257812 1043.53125 1366.722656 1044.003906 1365.160156 C 1044.476562 1363.597656 1044.875 1362.019531 1045.191406 1360.417969 C 1045.511719 1358.816406 1045.75 1357.207031 1045.910156 1355.582031 C 1046.070312 1353.957031 1046.148438 1352.328125 1046.148438 1350.699219 C 1046.148438 1349.066406 1046.070312 1347.4375 1045.910156 1345.8125 C 1045.75 1344.191406 1045.511719 1342.578125 1045.191406 1340.976562 C 1044.875 1339.375 1044.476562 1337.796875 1044.003906 1336.234375 C 1043.53125 1334.671875 1042.980469 1333.136719 1042.355469 1331.628906 C 1041.730469 1330.121094 1041.035156 1328.648438 1040.265625 1327.210938 C 1039.496094 1325.769531 1038.660156 1324.371094 1037.753906 1323.015625 C 1036.84375 1321.660156 1035.875 1320.351562 1034.839844 1319.089844 C 1033.804688 1317.828125 1032.710938 1316.621094 1031.554688 1315.464844 C 1030.402344 1314.3125 1029.195312 1313.21875 1027.933594 1312.183594 C 1026.671875 1311.148438 1025.363281 1310.175781 1024.003906 1309.269531 C 1022.648438 1308.363281 1021.25 1307.523438 1019.8125 1306.753906 C 1018.371094 1305.988281 1016.898438 1305.289062 1015.390625 1304.664062 C 1013.882812 1304.039062 1012.347656 1303.492188 1010.789062 1303.019531 C 1009.226562 1302.542969 1007.644531 1302.148438 1006.042969 1301.828125 C 1004.445312 1301.511719 1002.832031 1301.273438 1001.207031 1301.113281 C 999.582031 1300.953125 997.957031 1300.871094 996.324219 1300.871094 C 994.691406 1300.871094 993.066406 1300.953125 991.441406 1301.113281 C 989.816406 1301.273438 988.203125 1301.511719 986.605469 1301.828125 C 985.003906 1302.148438 983.421875 1302.542969 981.859375 1303.019531 C 980.300781 1303.492188 978.765625 1304.039062 977.257812 1304.664062 C 975.75 1305.289062 974.277344 1305.988281 972.835938 1306.753906 C 971.398438 1307.523438 970 1308.363281 968.644531 1309.269531 C 967.285156 1310.175781 965.976562 1311.148438 964.714844 1312.183594 C 963.453125 1313.21875 962.246094 1314.3125 961.09375 1315.464844 C 959.9375 1316.621094 958.84375 1317.828125 957.808594 1319.089844 C 956.773438 1320.351562 955.804688 1321.660156 954.894531 1323.015625 C 953.988281 1324.371094 953.152344 1325.769531 952.382812 1327.210938 C 951.613281 1328.648438 950.917969 1330.121094 950.292969 1331.628906 C 949.667969 1333.136719 949.117188 1334.671875 948.644531 1336.234375 C 948.171875 1337.796875 947.773438 1339.375 947.457031 1340.976562 C 947.136719 1342.578125 946.898438 1344.191406 946.738281 1345.8125 C 946.578125 1347.4375 946.5 1349.066406 946.5 1350.699219 C 946.5 1352.328125 946.578125 1353.957031 946.738281 1355.582031 C 946.898438 1357.207031 947.136719 1358.816406 947.457031 1360.417969 C 947.773438 1362.019531 948.171875 1363.597656 948.644531 1365.160156 C 949.117188 1366.722656 949.667969 1368.257812 950.292969 1369.765625 C 950.917969 1371.273438 951.613281 1372.746094 952.382812 1374.183594 C 953.152344 1375.625 953.988281 1377.023438 954.894531 1378.378906 C 955.804688 1379.734375 956.773438 1381.042969 957.808594 1382.304688 C 958.84375 1383.566406 959.9375 1384.773438 961.09375 1385.929688 C 962.246094 1387.082031 963.453125 1388.175781 964.714844 1389.210938 C 965.976562 1390.246094 967.285156 1391.21875 968.644531 1392.125 C 970 1393.03125 971.398438 1393.871094 972.835938 1394.640625 C 974.277344 1395.410156 975.75 1396.105469 977.257812 1396.730469 C 978.765625 1397.355469 980.300781 1397.902344 981.859375 1398.375 C 983.421875 1398.851562 985.003906 1399.246094 986.605469 1399.566406 C 988.203125 1399.882812 989.816406 1400.121094 991.441406 1400.28125 C 993.066406 1400.441406 994.691406 1400.523438 996.324219 1400.523438 Z M 996.324219 1400.523438 " fill-opacity="1" fill-rule="nonzero"/><path fill="currentColor" d="M 398.425781 1201.222656 C 400.871094 1201.222656 403.316406 1201.28125 405.757812 1201.402344 C 408.203125 1201.523438 410.640625 1201.703125 413.074219 1201.941406 C 415.511719 1202.183594 417.9375 1202.480469 420.355469 1202.839844 C 422.777344 1203.199219 425.1875 1203.617188 427.585938 1204.09375 C 429.984375 1204.570312 432.371094 1205.109375 434.742188 1205.703125 C 437.117188 1206.296875 439.472656 1206.949219 441.816406 1207.660156 C 444.15625 1208.367188 446.476562 1209.136719 448.78125 1209.960938 C 451.085938 1210.785156 453.367188 1211.664062 455.625 1212.601562 C 457.886719 1213.535156 460.121094 1214.527344 462.332031 1215.574219 C 464.542969 1216.621094 466.730469 1217.71875 468.886719 1218.871094 C 471.042969 1220.023438 473.171875 1221.230469 475.269531 1222.488281 C 477.367188 1223.746094 479.433594 1225.054688 481.46875 1226.414062 C 483.503906 1227.773438 485.5 1229.179688 487.464844 1230.636719 C 489.429688 1232.09375 491.359375 1233.601562 493.25 1235.152344 C 495.140625 1236.703125 496.992188 1238.300781 498.804688 1239.945312 C 500.617188 1241.585938 502.390625 1243.273438 504.117188 1245.003906 C 505.847656 1246.730469 507.535156 1248.503906 509.179688 1250.316406 C 510.820312 1252.128906 512.417969 1253.980469 513.96875 1255.871094 C 515.523438 1257.761719 517.027344 1259.691406 518.484375 1261.65625 C 519.941406 1263.621094 521.347656 1265.621094 522.707031 1267.652344 C 524.066406 1269.6875 525.375 1271.753906 526.632812 1273.851562 C 527.890625 1275.949219 529.097656 1278.078125 530.25 1280.234375 C 531.402344 1282.394531 532.503906 1284.578125 533.546875 1286.789062 C 534.59375 1289 535.585938 1291.234375 536.519531 1293.496094 C 537.457031 1295.753906 538.335938 1298.039062 539.160156 1300.339844 C 539.984375 1302.644531 540.753906 1304.964844 541.464844 1307.308594 C 542.171875 1309.648438 542.824219 1312.003906 543.417969 1314.378906 C 544.015625 1316.75 544.550781 1319.136719 545.027344 1321.535156 C 545.503906 1323.933594 545.921875 1326.34375 546.28125 1328.765625 C 546.640625 1331.183594 546.941406 1333.613281 547.179688 1336.046875 C 547.417969 1338.480469 547.597656 1340.917969 547.71875 1343.363281 C 547.839844 1345.804688 547.898438 1348.25 547.898438 1350.699219 C 547.898438 1353.144531 547.839844 1355.589844 547.71875 1358.03125 C 547.597656 1360.476562 547.417969 1362.914062 547.179688 1365.347656 C 546.941406 1367.78125 546.640625 1370.210938 546.28125 1372.628906 C 545.921875 1375.050781 545.503906 1377.460938 545.027344 1379.859375 C 544.550781 1382.257812 544.015625 1384.644531 543.417969 1387.015625 C 542.824219 1389.390625 542.171875 1391.746094 541.464844 1394.085938 C 540.753906 1396.429688 539.984375 1398.75 539.160156 1401.054688 C 538.335938 1403.355469 537.457031 1405.640625 536.519531 1407.898438 C 535.585938 1410.160156 534.59375 1412.394531 533.546875 1414.605469 C 532.503906 1416.816406 531.402344 1419 530.25 1421.160156 C 529.097656 1423.316406 527.890625 1425.445312 526.632812 1427.542969 C 525.375 1429.640625 524.066406 1431.707031 522.707031 1433.742188 C 521.347656 1435.773438 519.941406 1437.773438 518.484375 1439.738281 C 517.027344 1441.703125 515.523438 1443.632812 513.96875 1445.523438 C 512.417969 1447.414062 510.820312 1449.265625 509.179688 1451.078125 C 507.535156 1452.890625 505.847656 1454.664062 504.117188 1456.390625 C 502.390625 1458.121094 500.617188 1459.808594 498.804688 1461.449219 C 496.992188 1463.09375 495.140625 1464.691406 493.25 1466.242188 C 491.359375 1467.796875 489.429688 1469.300781 487.464844 1470.757812 C 485.5 1472.214844 483.503906 1473.621094 481.46875 1474.980469 C 479.433594 1476.339844 477.367188 1477.648438 475.269531 1478.90625 C 473.171875 1480.164062 471.042969 1481.371094 468.886719 1482.523438 C 466.730469 1483.675781 464.542969 1484.773438 462.332031 1485.820312 C 460.121094 1486.867188 457.886719 1487.859375 455.625 1488.792969 C 453.367188 1489.730469 451.085938 1490.609375 448.78125 1491.433594 C 446.476562 1492.257812 444.15625 1493.027344 441.816406 1493.734375 C 439.472656 1494.445312 437.117188 1495.097656 434.742188 1495.691406 C 432.371094 1496.285156 429.984375 1496.824219 427.585938 1497.300781 C 425.1875 1497.777344 422.777344 1498.195312 420.355469 1498.554688 C 417.9375 1498.914062 415.511719 1499.214844 413.074219 1499.453125 C 410.640625 1499.691406 408.203125 1499.871094 405.757812 1499.992188 C 403.316406 1500.113281 400.871094 1500.171875 398.425781 1500.171875 C 395.976562 1500.171875 393.535156 1500.113281 391.089844 1499.992188 C 388.648438 1499.871094 386.207031 1499.691406 383.773438 1499.453125 C 381.339844 1499.214844 378.910156 1498.914062 376.492188 1498.554688 C 374.070312 1498.195312 371.664062 1497.777344 369.261719 1497.300781 C 366.863281 1496.824219 364.476562 1496.285156 362.105469 1495.691406 C 359.730469 1495.097656 357.375 1494.445312 355.035156 1493.734375 C 352.691406 1493.027344 350.371094 1492.257812 348.066406 1491.433594 C 345.765625 1490.609375 343.484375 1489.730469 341.222656 1488.792969 C 338.960938 1487.859375 336.726562 1486.867188 334.515625 1485.820312 C 332.304688 1484.773438 330.121094 1483.675781 327.960938 1482.523438 C 325.804688 1481.371094 323.675781 1480.164062 321.578125 1478.90625 C 319.480469 1477.648438 317.414062 1476.339844 315.378906 1474.980469 C 313.347656 1473.621094 311.347656 1472.214844 309.382812 1470.757812 C 307.417969 1469.300781 305.488281 1467.796875 303.597656 1466.242188 C 301.707031 1464.691406 299.855469 1463.09375 298.042969 1461.449219 C 296.230469 1459.808594 294.460938 1458.121094 292.730469 1456.390625 C 291 1454.664062 289.3125 1452.890625 287.671875 1451.078125 C 286.027344 1449.265625 284.429688 1447.414062 282.878906 1445.523438 C 281.328125 1443.632812 279.824219 1441.703125 278.363281 1439.738281 C 276.90625 1437.773438 275.5 1435.773438 274.140625 1433.742188 C 272.78125 1431.707031 271.472656 1429.640625 270.214844 1427.542969 C 268.957031 1425.445312 267.753906 1423.316406 266.597656 1421.160156 C 265.445312 1419 264.347656 1416.816406 263.300781 1414.605469 C 262.253906 1412.394531 261.265625 1410.160156 260.328125 1407.898438 C 259.390625 1405.640625 258.511719 1403.355469 257.6875 1401.054688 C 256.863281 1398.75 256.097656 1396.429688 255.386719 1394.085938 C 254.675781 1391.746094 254.023438 1389.390625 253.429688 1387.015625 C 252.835938 1384.644531 252.300781 1382.257812 251.820312 1379.859375 C 251.34375 1377.460938 250.925781 1375.050781 250.566406 1372.628906 C 250.207031 1370.210938 249.910156 1367.78125 249.667969 1365.347656 C 249.429688 1362.914062 249.25 1360.476562 249.128906 1358.03125 C 249.007812 1355.589844 248.949219 1353.144531 248.949219 1350.699219 C 248.949219 1348.25 249.007812 1345.804688 249.128906 1343.363281 C 249.25 1340.917969 249.429688 1338.480469 249.667969 1336.046875 C 249.910156 1333.613281 250.207031 1331.183594 250.566406 1328.765625 C 250.925781 1326.34375 251.34375 1323.933594 251.820312 1321.535156 C 252.300781 1319.136719 252.835938 1316.75 253.429688 1314.378906 C 254.023438 1312.003906 254.675781 1309.648438 255.386719 1307.308594 C 256.097656 1304.964844 256.863281 1302.644531 257.6875 1300.339844 C 258.511719 1298.039062 259.390625 1295.753906 260.328125 1293.496094 C 261.265625 1291.234375 262.253906 1289 263.300781 1286.789062 C 264.347656 1284.578125 265.445312 1282.394531 266.597656 1280.234375 C 267.753906 1278.078125 268.957031 1275.949219 270.214844 1273.851562 C 271.472656 1271.753906 272.78125 1269.6875 274.140625 1267.652344 C 275.5 1265.621094 276.90625 1263.621094 278.363281 1261.65625 C 279.824219 1259.691406 281.328125 1257.761719 282.878906 1255.871094 C 284.429688 1253.980469 286.027344 1252.128906 287.671875 1250.316406 C 289.3125 1248.503906 291 1246.730469 292.730469 1245.003906 C 294.460938 1243.273438 296.230469 1241.585938 298.042969 1239.945312 C 299.855469 1238.300781 301.707031 1236.703125 303.597656 1235.152344 C 305.488281 1233.601562 307.417969 1232.09375 309.382812 1230.636719 C 311.347656 1229.179688 313.347656 1227.773438 315.378906 1226.414062 C 317.414062 1225.054688 319.480469 1223.746094 321.578125 1222.488281 C 323.675781 1221.230469 325.804688 1220.023438 327.960938 1218.871094 C 330.121094 1217.71875 332.304688 1216.621094 334.515625 1215.574219 C 336.726562 1214.527344 338.960938 1213.535156 341.222656 1212.601562 C 343.484375 1211.664062 345.765625 1210.785156 348.066406 1209.960938 C 350.371094 1209.136719 352.691406 1208.367188 355.035156 1207.660156 C 357.375 1206.949219 359.730469 1206.296875 362.105469 1205.703125 C 364.476562 1205.109375 366.863281 1204.570312 369.261719 1204.09375 C 371.664062 1203.617188 374.070312 1203.199219 376.492188 1202.839844 C 378.910156 1202.480469 381.339844 1202.183594 383.773438 1201.941406 C 386.207031 1201.703125 388.648438 1201.523438 391.089844 1201.402344 C 393.535156 1201.28125 395.976562 1201.222656 398.425781 1201.222656 Z M 398.425781 1400.523438 C 400.054688 1400.523438 401.683594 1400.441406 403.308594 1400.28125 C 404.933594 1400.121094 406.542969 1399.882812 408.144531 1399.566406 C 409.746094 1399.246094 411.328125 1398.851562 412.886719 1398.375 C 414.449219 1397.902344 415.984375 1397.355469 417.492188 1396.730469 C 419 1396.105469 420.472656 1395.410156 421.910156 1394.640625 C 423.351562 1393.871094 424.75 1393.03125 426.105469 1392.125 C 427.460938 1391.21875 428.773438 1390.246094 430.03125 1389.210938 C 431.292969 1388.175781 432.503906 1387.082031 433.65625 1385.929688 C 434.808594 1384.773438 435.90625 1383.566406 436.941406 1382.304688 C 437.976562 1381.042969 438.945312 1379.734375 439.851562 1378.378906 C 440.757812 1377.023438 441.597656 1375.625 442.367188 1374.183594 C 443.136719 1372.746094 443.832031 1371.273438 444.457031 1369.765625 C 445.082031 1368.257812 445.628906 1366.722656 446.105469 1365.160156 C 446.578125 1363.597656 446.972656 1362.019531 447.292969 1360.417969 C 447.609375 1358.816406 447.847656 1357.207031 448.007812 1355.582031 C 448.167969 1353.957031 448.25 1352.328125 448.25 1350.699219 C 448.25 1349.066406 448.167969 1347.4375 448.007812 1345.8125 C 447.847656 1344.191406 447.609375 1342.578125 447.292969 1340.976562 C 446.972656 1339.375 446.578125 1337.796875 446.105469 1336.234375 C 445.628906 1334.671875 445.082031 1333.136719 444.457031 1331.628906 C 443.832031 1330.121094 443.136719 1328.648438 442.367188 1327.210938 C 441.597656 1325.769531 440.757812 1324.371094 439.851562 1323.015625 C 438.945312 1321.660156 437.976562 1320.351562 436.941406 1319.089844 C 435.90625 1317.828125 434.808594 1316.621094 433.65625 1315.464844 C 432.503906 1314.3125 431.292969 1313.21875 430.03125 1312.183594 C 428.773438 1311.148438 427.460938 1310.175781 426.105469 1309.269531 C 424.75 1308.363281 423.351562 1307.523438 421.910156 1306.753906 C 420.472656 1305.988281 419 1305.289062 417.492188 1304.664062 C 415.984375 1304.039062 414.449219 1303.492188 412.886719 1303.019531 C 411.328125 1302.542969 409.746094 1302.148438 408.144531 1301.828125 C 406.542969 1301.511719 404.933594 1301.273438 403.308594 1301.113281 C 401.683594 1300.953125 400.054688 1300.871094 398.425781 1300.871094 C 396.792969 1300.871094 395.164062 1300.953125 393.539062 1301.113281 C 391.917969 1301.273438 390.304688 1301.511719 388.703125 1301.828125 C 387.105469 1302.148438 385.523438 1302.542969 383.960938 1303.019531 C 382.398438 1303.492188 380.863281 1304.039062 379.355469 1304.664062 C 377.847656 1305.289062 376.375 1305.988281 374.9375 1306.753906 C 373.496094 1307.523438 372.101562 1308.363281 370.742188 1309.269531 C 369.386719 1310.175781 368.078125 1311.148438 366.816406 1312.183594 C 365.554688 1313.21875 364.347656 1314.3125 363.191406 1315.464844 C 362.039062 1316.621094 360.945312 1317.828125 359.910156 1319.089844 C 358.875 1320.351562 357.902344 1321.660156 356.996094 1323.015625 C 356.089844 1324.371094 355.25 1325.769531 354.484375 1327.210938 C 353.714844 1328.648438 353.015625 1330.121094 352.390625 1331.628906 C 351.765625 1333.136719 351.21875 1334.671875 350.746094 1336.234375 C 350.269531 1337.796875 349.875 1339.375 349.558594 1340.976562 C 349.238281 1342.578125 349 1344.191406 348.839844 1345.8125 C 348.679688 1347.4375 348.597656 1349.066406 348.597656 1350.699219 C 348.597656 1352.328125 348.679688 1353.957031 348.839844 1355.582031 C 349 1357.207031 349.238281 1358.816406 349.558594 1360.417969 C 349.875 1362.019531 350.269531 1363.597656 350.746094 1365.160156 C 351.21875 1366.722656 351.765625 1368.257812 352.390625 1369.765625 C 353.015625 1371.273438 353.714844 1372.746094 354.484375 1374.183594 C 355.25 1375.625 356.089844 1377.023438 356.996094 1378.378906 C 357.902344 1379.734375 358.875 1381.042969 359.910156 1382.304688 C 360.945312 1383.566406 362.039062 1384.773438 363.191406 1385.929688 C 364.347656 1387.082031 365.554688 1388.175781 366.816406 1389.210938 C 368.078125 1390.246094 369.386719 1391.21875 370.742188 1392.125 C 372.101562 1393.03125 373.496094 1393.871094 374.9375 1394.640625 C 376.375 1395.410156 377.847656 1396.105469 379.355469 1396.730469 C 380.863281 1397.355469 382.398438 1397.902344 383.960938 1398.375 C 385.523438 1398.851562 387.105469 1399.246094 388.703125 1399.566406 C 390.304688 1399.882812 391.917969 1400.121094 393.539062 1400.28125 C 395.164062 1400.441406 396.792969 1400.523438 398.425781 1400.523438 Z M 398.425781 1400.523438 " fill-opacity="1" fill-rule="nonzero"/><g fill="currentColor" fill-opacity="1"><g transform="translate(1470.062119, 702.324985)"><g><path d="M 259 11.75 C 178.78125 11.75 105.921875 0.78125 40.421875 -21.15625 L 64.40625 -136.78125 C 123.9375 -117.039062 185.515625 -107.015625 249.140625 -106.703125 C 300.523438 -106.703125 336.796875 -113.910156 357.953125 -128.328125 C 379.109375 -142.742188 389.6875 -167.34375 389.6875 -202.125 C 389.6875 -227.195312 384.4375 -245.84375 373.9375 -258.0625 C 363.4375 -270.28125 345.960938 -278.269531 321.515625 -282.03125 L 212 -299.421875 C 150.894531 -308.515625 105.613281 -329.039062 76.15625 -361 C 46.695312 -392.96875 31.96875 -437.941406 31.96875 -495.921875 C 31.96875 -564.546875 53.429688 -615.546875 96.359375 -648.921875 C 139.296875 -682.296875 205.421875 -698.984375 294.734375 -698.984375 C 362.734375 -698.984375 430.734375 -690.050781 498.734375 -672.1875 L 498.734375 -553.734375 C 424.773438 -571.597656 359.90625 -580.53125 304.125 -580.53125 C 259.3125 -580.53125 226.796875 -573.945312 206.578125 -560.78125 C 186.367188 -547.625 176.265625 -526.628906 176.265625 -497.796875 C 176.265625 -475.859375 182.0625 -459.09375 193.65625 -447.5 C 205.257812 -435.90625 224.066406 -427.601562 250.078125 -422.59375 L 350.203125 -407.078125 C 415.066406 -396.109375 462.148438 -374.796875 491.453125 -343.140625 C 520.753906 -311.492188 535.40625 -265.429688 535.40625 -204.953125 C 535.40625 -129.734375 513.234375 -74.8125 468.890625 -40.1875 C 424.546875 -5.5625 354.582031 11.75 259 11.75 Z M 259 11.75 "/></g></g></g><g fill="currentColor" fill-opacity="1"><g transform="translate(2036.010952, 702.324985)"><g><path d="M 66.28125 0 L 66.28125 -687.234375 L 197.421875 -687.234375 L 414.125 -371.8125 L 416.9375 -371.8125 L 632.703125 -687.234375 L 763.375 -687.234375 L 763.375 0 L 622.828125 0 L 622.828125 -236.90625 C 622.828125 -324.96875 627.375 -404.878906 636.46875 -476.640625 L 632.703125 -476.640625 L 415.0625 -159.828125 L 197.421875 -476.640625 L 193.671875 -476.640625 C 202.753906 -404.878906 207.140625 -324.96875 206.828125 -236.90625 L 206.828125 0 Z M 66.28125 0 "/></g></g></g><g fill="currentColor" fill-opacity="1"><g transform="translate(2865.661944, 702.324985)"><g><path d="M 499.671875 0 L 447.5 -170.15625 L 212.9375 -170.15625 L 160.765625 0 L 14.578125 0 L 235.96875 -687.234375 L 425.40625 -687.234375 L 646.8125 0 Z M 244.4375 -274.515625 L 416 -274.515625 L 390.625 -358.1875 C 361.789062 -454.394531 342.359375 -536.5 332.328125 -604.5 L 328.109375 -604.5 C 317.140625 -532.738281 297.863281 -450.632812 270.28125 -358.1875 Z M 244.4375 -274.515625 "/></g></g></g><g fill="currentColor" fill-opacity="1"><g transform="translate(3526.562322, 702.324985)"><g><path d="M 548.5625 -157.9375 L 578.640625 0 L 435.28125 0 L 408.953125 -148.0625 C 401.742188 -189.113281 389.207031 -218.335938 371.34375 -235.734375 C 353.488281 -253.128906 327.632812 -261.828125 293.78125 -261.828125 L 206.828125 -261.828125 L 206.828125 0 L 66.28125 0 L 66.28125 -687.234375 L 323.40625 -687.234375 C 397.988281 -687.234375 455.804688 -669.601562 496.859375 -634.34375 C 537.910156 -599.09375 558.4375 -549.660156 558.4375 -486.046875 C 558.4375 -397.359375 518.320312 -337.972656 438.09375 -307.890625 L 438.09375 -306.015625 C 469.4375 -294.421875 493.878906 -276.945312 511.421875 -253.59375 C 528.972656 -230.25 541.351562 -198.363281 548.5625 -157.9375 Z M 308.828125 -374.640625 C 342.046875 -374.640625 367.898438 -383.410156 386.390625 -400.953125 C 404.878906 -418.503906 414.125 -443.023438 414.125 -474.515625 C 414.125 -506.015625 404.957031 -530.617188 386.625 -548.328125 C 368.289062 -566.035156 342.359375 -574.890625 308.828125 -574.890625 L 206.828125 -574.890625 L 206.828125 -374.640625 Z M 308.828125 -374.640625 "/></g></g></g><g fill="currentColor" fill-opacity="1"><g transform="translate(4125.415159, 702.324985)"><g><path d="M 205.890625 0 L 205.890625 -568.78125 L 17.390625 -568.78125 L 17.390625 -687.234375 L 535.40625 -687.234375 L 535.40625 -568.78125 L 346.4375 -568.78125 L 346.4375 0 Z M 205.890625 0 "/></g></g></g><g fill="currentColor" fill-opacity="1"><g transform="translate(1470.062119, 1491.724169)"><g><path d="M 365.703125 11.75 C 262.296875 11.75 182.703125 -19.113281 126.921875 -80.84375 C 71.140625 -142.582031 43.25 -230.25 43.25 -343.84375 C 43.25 -457.445312 71.375 -545.035156 127.625 -606.609375 C 183.875 -668.191406 263.863281 -698.984375 367.59375 -698.984375 C 436.84375 -698.984375 506.253906 -684.566406 575.828125 -655.734375 L 575.828125 -541.046875 C 519.421875 -567.367188 461.601562 -580.53125 402.375 -580.53125 C 259.164062 -580.53125 187.5625 -501.554688 187.5625 -343.609375 C 187.5625 -185.671875 259.789062 -106.703125 404.25 -106.703125 C 460.03125 -106.703125 519.726562 -119.238281 583.34375 -144.3125 L 570.65625 -29.609375 C 503.90625 -2.035156 435.585938 11.75 365.703125 11.75 Z M 365.703125 11.75 "/></g></g></g><g fill="currentColor" fill-opacity="1"><g transform="translate(2044.471593, 1491.724169)"><g><path d="M 581.46875 -78.734375 C 528.195312 -18.410156 451.8125 11.75 352.3125 11.75 C 252.8125 11.75 176.425781 -18.410156 123.15625 -78.734375 C 69.882812 -139.054688 43.25 -227.347656 43.25 -343.609375 C 43.25 -459.878906 69.882812 -548.175781 123.15625 -608.5 C 176.425781 -668.820312 252.8125 -698.984375 352.3125 -698.984375 C 451.8125 -698.984375 528.195312 -668.820312 581.46875 -608.5 C 634.738281 -548.175781 661.375 -459.878906 661.375 -343.609375 C 661.375 -227.347656 634.738281 -139.054688 581.46875 -78.734375 Z M 352.546875 -106.703125 C 408.953125 -106.703125 450.472656 -125.660156 477.109375 -163.578125 C 503.742188 -201.492188 517.0625 -261.503906 517.0625 -343.609375 C 517.0625 -425.710938 503.742188 -485.722656 477.109375 -523.640625 C 450.472656 -561.566406 408.953125 -580.53125 352.546875 -580.53125 C 295.515625 -580.53125 253.757812 -561.410156 227.28125 -523.171875 C 200.800781 -484.941406 187.5625 -425.085938 187.5625 -343.609375 C 187.5625 -262.140625 200.800781 -202.285156 227.28125 -164.046875 C 253.757812 -125.816406 295.515625 -106.703125 352.546875 -106.703125 Z M 352.546875 -106.703125 "/></g></g></g><g fill="currentColor" fill-opacity="1"><g transform="translate(2749.087382, 1491.724169)"><g><path d="M 66.28125 0 L 66.28125 -687.234375 L 197.421875 -687.234375 L 414.125 -371.8125 L 416.9375 -371.8125 L 632.703125 -687.234375 L 763.375 -687.234375 L 763.375 0 L 622.828125 0 L 622.828125 -236.90625 C 622.828125 -324.96875 627.375 -404.878906 636.46875 -476.640625 L 632.703125 -476.640625 L 415.0625 -159.828125 L 197.421875 -476.640625 L 193.671875 -476.640625 C 202.753906 -404.878906 207.140625 -324.96875 206.828125 -236.90625 L 206.828125 0 Z M 66.28125 0 "/></g></g></g><g fill="currentColor" fill-opacity="1"><g transform="translate(3578.738374, 1491.724169)"><g><path d="M 323.40625 -687.234375 C 395.789062 -687.234375 453.054688 -668.035156 495.203125 -629.640625 C 537.359375 -591.253906 558.4375 -538.6875 558.4375 -471.9375 C 558.4375 -405.1875 537.4375 -352.539062 495.4375 -314 C 453.445312 -275.457031 396.101562 -256.1875 323.40625 -256.1875 L 206.828125 -256.1875 L 206.828125 0 L 66.28125 0 L 66.28125 -687.234375 Z M 316.828125 -374.640625 C 346.910156 -374.640625 370.644531 -383.410156 388.03125 -400.953125 C 405.425781 -418.503906 414.125 -442.085938 414.125 -471.703125 C 414.125 -501.316406 405.425781 -524.898438 388.03125 -542.453125 C 370.644531 -560.003906 346.910156 -568.78125 316.828125 -568.78125 L 206.828125 -568.78125 L 206.828125 -374.640625 Z M 316.828125 -374.640625 "/></g></g></g><g fill="currentColor" fill-opacity="1"><g transform="translate(4159.729031, 1491.724169)"><g><path d="M 548.5625 -157.9375 L 578.640625 0 L 435.28125 0 L 408.953125 -148.0625 C 401.742188 -189.113281 389.207031 -218.335938 371.34375 -235.734375 C 353.488281 -253.128906 327.632812 -261.828125 293.78125 -261.828125 L 206.828125 -261.828125 L 206.828125 0 L 66.28125 0 L 66.28125 -687.234375 L 323.40625 -687.234375 C 397.988281 -687.234375 455.804688 -669.601562 496.859375 -634.34375 C 537.910156 -599.09375 558.4375 -549.660156 558.4375 -486.046875 C 558.4375 -397.359375 518.320312 -337.972656 438.09375 -307.890625 L 438.09375 -306.015625 C 469.4375 -294.421875 493.878906 -276.945312 511.421875 -253.59375 C 528.972656 -230.25 541.351562 -198.363281 548.5625 -157.9375 Z M 308.828125 -374.640625 C 342.046875 -374.640625 367.898438 -383.410156 386.390625 -400.953125 C 404.878906 -418.503906 414.125 -443.023438 414.125 -474.515625 C 414.125 -506.015625 404.957031 -530.617188 386.625 -548.328125 C 368.289062 -566.035156 342.359375 -574.890625 308.828125 -574.890625 L 206.828125 -574.890625 L 206.828125 -374.640625 Z M 308.828125 -374.640625 "/></g></g></g><g fill="currentColor" fill-opacity="1"><g transform="translate(4764.222736, 1491.724169)"><g><path d="M 499.671875 0 L 447.5 -170.15625 L 212.9375 -170.15625 L 160.765625 0 L 14.578125 0 L 235.96875 -687.234375 L 425.40625 -687.234375 L 646.8125 0 Z M 244.4375 -274.515625 L 416 -274.515625 L 390.625 -358.1875 C 361.789062 -454.394531 342.359375 -536.5 332.328125 -604.5 L 328.109375 -604.5 C 317.140625 -532.738281 297.863281 -450.632812 270.28125 -358.1875 Z M 244.4375 -274.515625 "/></g></g></g><g fill="currentColor" fill-opacity="1"><g transform="translate(5425.122923, 1491.724169)"><g><path d="M 259 11.75 C 178.78125 11.75 105.921875 0.78125 40.421875 -21.15625 L 64.40625 -136.78125 C 123.9375 -117.039062 185.515625 -107.015625 249.140625 -106.703125 C 300.523438 -106.703125 336.796875 -113.910156 357.953125 -128.328125 C 379.109375 -142.742188 389.6875 -167.34375 389.6875 -202.125 C 389.6875 -227.195312 384.4375 -245.84375 373.9375 -258.0625 C 363.4375 -270.28125 345.960938 -278.269531 321.515625 -282.03125 L 212 -299.421875 C 150.894531 -308.515625 105.613281 -329.039062 76.15625 -361 C 46.695312 -392.96875 31.96875 -437.941406 31.96875 -495.921875 C 31.96875 -564.546875 53.429688 -615.546875 96.359375 -648.921875 C 139.296875 -682.296875 205.421875 -698.984375 294.734375 -698.984375 C 362.734375 -698.984375 430.734375 -690.050781 498.734375 -672.1875 L 498.734375 -553.734375 C 424.773438 -571.597656 359.90625 -580.53125 304.125 -580.53125 C 259.3125 -580.53125 226.796875 -573.945312 206.578125 -560.78125 C 186.367188 -547.625 176.265625 -526.628906 176.265625 -497.796875 C 176.265625 -475.859375 182.0625 -459.09375 193.65625 -447.5 C 205.257812 -435.90625 224.066406 -427.601562 250.078125 -422.59375 L 350.203125 -407.078125 C 415.066406 -396.109375 462.148438 -374.796875 491.453125 -343.140625 C 520.753906 -311.492188 535.40625 -265.429688 535.40625 -204.953125 C 535.40625 -129.734375 513.234375 -74.8125 468.890625 -40.1875 C 424.546875 -5.5625 354.582031 11.75 259 11.75 Z M 259 11.75 "/></g></g></g></svg>